<svg fill="none" height="24" viewBox="0 0 24 24" width="24" xmlns="http://www.w3.org/2000/svg"><circle cx="4" cy="5" r="2" stroke="#141b34" stroke-width="1.5"/><circle cx="20" cy="7" r="2" stroke="#141b34" stroke-width="1.5"/><path d="m16.6496 11.4256.6608-.3547zm1.6003 5.5744c0 .4142.3358.75.75.75s.75-.3358.75-.75zm-7.7267 1.1763c.0974.4026.5027.65.9053.5527.4026-.0974.65-.5027.5527-.9053zm5.4655-6.3961c.358.6671.6922 1.1702.9857 1.5906.303.434.5243.7287.7147 1.0487.335.5631.5608 1.1854.5608 2.5805h1.5c0-1.6049-.2708-2.5055-.7717-3.3474-.2276-.3826-.509-.761-.7739-1.1405-.2744-.3931-.5733-.8439-.8939-1.4412zm-4.0075 6.0435c-.4434-1.8335-.2755-4.3035.7339-6.4727.9989-2.14646 2.8033-3.96724 5.6372-4.62015l-.3368-1.4617c-3.3533.77258-5.4983 2.9518-6.6603 5.44895-1.1515 2.4745-1.35586 5.2917-.832 7.4582zm6.2816-10.53521c-.8806.29353-1.7051.86521-2.1921 1.64632-.5074.81361-.6261 1.83159-.082 2.84539l1.3217-.7093c-.2697-.5025-.2133-.9473.0331-1.34242.2666-.42758.7743-.8105 1.3937-1.01697z" fill="#141b34"/><g stroke="#141b34" stroke-linecap="round" stroke-width="1.5"><path d="m4.96708 17c-3.52363-5.5 4.02283-6-.00772-10m1.41937-2c1.10405 0 3.62127 1 3.62127 3"/><path d="m5 17c5.2172 1.4523 8.3284 1.2088 14 0" stroke-linejoin="round"/><path d="m4 20c5.96256 1.4523 9.5182 1.2088 16 0" stroke-linejoin="round"/></g></svg>